<svg width="360" height="360" viewBox="0 0 360 360" fill="none" xmlns="http://www.w3.org/2000/svg">
  <g opacity="0.96">
    <path d="M42 294C66 246 106 216 149 196C131 234 99 278 58 321" fill="#9BB567"/>
    <path d="M60 279C81 235 121 201 162 183C149 220 117 263 77 309" fill="#C4CC86"/>
    <path d="M95 240C126 208 161 188 199 176C186 209 155 240 118 270" fill="#6D8D54"/>
    <path d="M18 186C58 161 92 153 132 156C99 189 57 216 7 231" fill="#8BAA59"/>
    <path d="M36 147C72 121 112 109 158 111C126 148 84 173 33 185" fill="#B8C57C"/>
    <path d="M74 116C108 90 145 76 188 74C158 111 118 138 68 151" fill="#6F8A4D"/>
    <path d="M139 68C176 92 193 128 199 170C162 146 135 111 126 64" fill="#E4C470"/>
    <path d="M167 56C206 82 226 122 231 167C193 143 164 106 155 56" fill="#C39F4D"/>
    <path d="M180 174C216 193 239 221 250 259C212 245 185 221 169 190" fill="#89A95C"/>
    <path d="M208 185C243 205 267 233 278 269C241 255 213 232 195 202" fill="#CFC57A"/>
    <path d="M226 215C254 228 274 248 285 276C256 270 233 255 218 232" fill="#6A8753"/>
    <path d="M120 253C153 262 177 279 194 305C162 307 134 294 112 269" fill="#7A9956"/>
    <path d="M142 272C171 282 193 299 207 321C178 322 153 311 134 290" fill="#C3CB86"/>
    <path d="M34 223C53 228 65 239 74 254C55 254 39 247 25 235" fill="#D3AF63"/>
    <path d="M54 207C74 212 87 225 95 240C75 239 59 231 45 219" fill="#E6C979"/>
    <circle cx="42" cy="231" r="7" fill="#E4C470"/>
    <circle cx="56" cy="241" r="7" fill="#D7B061"/>
    <circle cx="67" cy="227" r="6" fill="#EBD58D"/>
  </g>
</svg>
