<svg width="360" height="360" viewBox="0 0 360 360" fill="none" xmlns="http://www.w3.org/2000/svg">
  <g opacity="0.97">
    <path d="M314 293C289 243 251 213 209 192C225 230 257 274 298 320" fill="#95B462"/>
    <path d="M295 277C273 233 235 200 193 181C206 218 238 262 278 307" fill="#C7CE88"/>
    <path d="M264 241C232 206 198 184 159 171C171 205 202 238 241 269" fill="#6F8C55"/>
    <path d="M352 185C313 161 276 152 236 154C269 188 312 216 358 228" fill="#83A258"/>
    <path d="M327 144C290 118 250 104 205 106C236 146 281 173 330 184" fill="#B8C57B"/>
    <path d="M289 113C256 88 218 73 175 71C206 109 246 136 295 149" fill="#6D874F"/>
    <path d="M219 168C244 139 264 106 267 68C236 89 214 126 210 165" fill="#D2AF62"/>
    <path d="M203 176C224 149 241 119 246 84C219 103 200 135 195 171" fill="#E9D188"/>
    <path d="M174 189C149 208 133 233 126 265C153 253 172 231 185 204" fill="#87A95B"/>
    <path d="M150 202C125 220 110 244 102 274C130 264 150 243 162 215" fill="#6D8954"/>
    <path d="M129 229C109 243 96 261 90 286C112 279 128 264 137 244" fill="#C4CA7E"/>
    <path d="M236 240C258 247 276 261 289 281C266 284 246 276 230 258" fill="#C7B06A"/>
    <path d="M252 258C275 264 294 278 308 299C284 302 263 294 248 276" fill="#E7D28A"/>
    <path d="M252 94C275 95 294 102 311 118C289 123 269 119 252 105" fill="#6E8952"/>
    <path d="M233 81C258 83 279 91 297 108C272 113 251 108 232 93" fill="#CBB366"/>
    <circle cx="236" cy="122" r="14" fill="#F4E8C7"/>
    <circle cx="253" cy="116" r="14" fill="#F0E1B8"/>
    <circle cx="248" cy="136" r="14" fill="#F6ECD1"/>
    <circle cx="265" cy="130" r="14" fill="#F2E5C2"/>
    <circle cx="259" cy="148" r="14" fill="#F5EBD0"/>
    <circle cx="242" cy="154" r="14" fill="#F8F0DA"/>
    <circle cx="251" cy="136" r="9" fill="#D7B061"/>
    <circle cx="303" cy="267" r="8" fill="#E5C16D"/>
    <circle cx="287" cy="279" r="8" fill="#D7A94C"/>
    <circle cx="316" cy="283" r="8" fill="#E9CB7D"/>
  </g>
</svg>
